<svg xmlns="http://www.w3.org/2000/svg" xmlns:xlink="http://www.w3.org/1999/xlink" version="1.1" x="0px" y="0px" viewBox="0 0 100 125" enable-background="new 0 0 100 100" xml:space="preserve"><path fill="#000000" d="M0.826,125.776"/><g><g><path fill="#000000" d="M45.064,63.656c-0.176,0.008-0.353,0.011-0.529,0.011 M45.031,62.844"/></g><g><g><circle fill="none" cx="50.741" cy="37.152" r="20.038"/></g><path d="M50.741,9.421c-15.766,0-28.548,12.781-28.548,28.548c0,15.767,24.632,50.608,28.548,50.608    c3.919,0,28.547-34.842,28.547-50.608C79.288,22.202,66.507,9.421,50.741,9.421z M50.741,57.295    c-11.066,0-20.037-8.972-20.037-20.036c0-0.019,0.001-0.037,0.001-0.054c0-0.019-0.001-0.036-0.001-0.054    c0-11.065,8.973-20.037,20.037-20.037c10.73,0,19.488,8.438,20.007,19.041c0.02,0.366,0.031,0.733,0.031,1.104    C70.779,48.323,61.811,57.295,50.741,57.295z"/><g><path d="M50.326,50.191c0,0.394,0.318,0.713,0.712,0.713l0,0c0.394,0,0.712-0.319,0.712-0.713V24.325     c0-0.395-0.318-0.715-0.712-0.715l0,0c-0.395,0-0.712,0.32-0.712,0.715V50.191z"/><circle cx="42.013" cy="28.634" r="3.086"/><circle cx="59.934" cy="28.634" r="3.085"/><path d="M47.436,39.547c0,1.991-1.626,3.617-3.617,3.617h-3.61c-1.991,0-3.618-1.626-3.618-3.617v-3.176     c0-1.991,1.627-3.621,3.618-3.621h3.61c1.991,0,3.617,1.63,3.617,3.621V39.547z"/><path d="M65.924,40.469c0.354,1.959-0.989,3.571-2.977,3.582l-6.193,0.029c-1.988,0.01-3.32-1.583-2.96-3.542l0.728-3.937     c0.361-1.957,2.285-3.558,4.274-3.558h2.178c1.989,0,3.905,1.601,4.257,3.561L65.924,40.469z"/><path d="M44.728,47.89c0,1.301-1.066,2.366-2.368,2.366h-0.692c-1.302,0-2.367-1.064-2.367-2.366v-3.839     c0-1.303,1.065-2.368,2.367-2.368h0.692c1.302,0,2.368,1.065,2.368,2.368V47.89z"/><path d="M62.646,47.926c0,1.303-1.066,2.367-2.369,2.367h-0.688c-1.303,0-2.369-1.064-2.369-2.367v-3.265     c0-1.303,1.066-2.368,2.369-2.368h0.688c1.303,0,2.369,1.065,2.369,2.368V47.926z"/></g></g></g></svg>