<svg xmlns:dc="http://purl.org/dc/elements/1.1/" xmlns:cc="http://creativecommons.org/ns#" xmlns:rdf="http://www.w3.org/1999/02/22-rdf-syntax-ns#" xmlns:svg="http://www.w3.org/2000/svg" xmlns="http://www.w3.org/2000/svg" xmlns:sodipodi="http://sodipodi.sourceforge.net/DTD/sodipodi-0.dtd" xmlns:inkscape="http://www.inkscape.org/namespaces/inkscape" viewBox="0 0 100 125" version="1.1" x="0px" y="0px"><g transform="translate(0,-952.36216)"><path d="m 49.999927,957.36216 c -17.673602,0 -32.006581,14.3329 -32.006581,32.0065 0,17.67374 32.97682,57.99354 32.97682,57.99354 0,0 31.036488,-40.3198 31.036488,-57.99354 0,-17.6736 -14.333082,-32.0065 -32.006727,-32.0065 z m 0,6.4939 c 14.090522,0 25.512737,11.4223 25.512737,25.5126 0,14.09064 -11.422215,25.51284 -25.512737,25.51284 -14.090376,0 -25.512636,-11.4222 -25.512636,-25.51284 0,-14.0903 11.42226,-25.5126 25.512636,-25.5126 z" style="" fill="#02A9E6" fill-opacity="1" fill-rule="nonzero" stroke="none"/><path d="m 42.866609,976.46906 c -0.110255,0 -0.220509,0.055 -0.297687,0.1434 0,0 -1.400232,1.753 -2.800464,3.8919 -0.705629,1.0695 -1.411257,2.2382 -1.940479,3.3518 -0.529221,1.1025 -0.904087,2.15 -0.904087,3.032 0,3.2965 2.679184,5.9756 5.964768,5.9756 3.296608,0 5.975645,-2.6791 5.975645,-5.9756 0,-0.882 -0.374865,-1.9295 -0.915112,-3.032 -0.5401,-1.1136 -1.245728,-2.2823 -1.951357,-3.3518 -1.411257,-2.1389 -2.822515,-3.8919 -2.822515,-3.8919 -0.07718,-0.099 -0.187432,-0.1434 -0.308712,-0.1434 z" style="" fill="#02A9E6" fill-opacity="1" fill-rule="nonzero" stroke="none"/><path d="m 57.08929,985.87386 c -0.121281,0 -0.231535,0.055 -0.308713,0.1432 0,0 -1.400232,1.753 -2.800464,3.8919 -0.705628,1.0695 -1.400232,2.2382 -1.940479,3.3518 -0.529221,1.1025 -0.904086,2.1499 -0.904086,3.0319 0,3.2966 2.679184,5.97584 5.975792,5.97584 3.285584,0 5.964768,-2.67924 5.964768,-5.97584 0,-0.882 -0.374866,-1.9294 -0.915113,-3.0319 -0.529221,-1.1136 -1.245875,-2.2823 -1.951504,-3.3518 -1.411257,-2.1389 -2.822514,-3.8919 -2.822514,-3.8919 -0.06615,-0.099 -0.187433,-0.1432 -0.297687,-0.1432 z" style="" fill="#02A9E6" fill-opacity="1" fill-rule="nonzero" stroke="none"/></g></svg>